<?xml version="1.0" encoding="iso-8859-1"?>
<!-- Generator: Adobe Illustrator 16.0.0, SVG Export Plug-In . SVG Version: 6.00 Build 0)  -->
<!DOCTYPE svg PUBLIC "-//W3C//DTD SVG 1.1//EN" "http://www.w3.org/Graphics/SVG/1.1/DTD/svg11.dtd">
<svg version="1.1" id="Capa_1" xmlns="http://www.w3.org/2000/svg" xmlns:xlink="http://www.w3.org/1999/xlink" x="0px" y="0px"
	 width="343.423px" height="343.423px" viewBox="0 0 343.423 343.423" style="enable-background:new 0 0 343.423 343.423;"
	 xml:space="preserve">
<g>
	<g id="Artwork_92_">
		<g id="Layer_5_92_">
			<g>
				<path d="M194.941,266.801c1.199-1.521,1.084-4.527-0.227-5.955l-45.874-49.902c-3.933-4.278-5.894-9.801-5.52-15.549
					c0.373-5.748,3.032-10.972,7.485-14.705l46.609-39.08c1.453-1.219,1.928-4.108,0.939-5.728c0,0-23.725-41.677-33.237-54.487
					c-10.782-14.522-37.867-46.193-76.488-46.193c-47.313,0-85.947,39.021-88.476,86.27c-1.426,26.691,7.177,47.002,19.304,65.402
					c21.088,32.002,104.095,103.213,139.919,121.103c0.78,0.391,2.461,0.702,4.961-2.298L194.941,266.801z"/>
				<path d="M343.268,121.471c-2.528-47.249-41.159-86.27-88.476-86.27c-31.024,0-54.488,23.046-68.76,38.424
					c-0.703,0.758-2.191,2.554,0.309,6.179l28.236,46.184c5.891,9.656,3.715,22.913-4.953,30.181l-46.61,39.08
					c-0.561,0.472-0.708,1.009-0.732,1.377c-0.024,0.367,0.052,0.919,0.548,1.46l45.873,49.902
					c7.622,8.293,8.135,21.722,1.165,30.57l-19.466,24.87c-1.625,1.845-0.96,1.933-0.338,1.579
					c38.263-21.691,113.708-87.431,133.899-118.135C336.117,168.391,344.695,148.162,343.268,121.471z"/>
			</g>
		</g>
	</g>
</g>
<g>
</g>
<g>
</g>
<g>
</g>
<g>
</g>
<g>
</g>
<g>
</g>
<g>
</g>
<g>
</g>
<g>
</g>
<g>
</g>
<g>
</g>
<g>
</g>
<g>
</g>
<g>
</g>
<g>
</g>
</svg>
